<svg xmlns="http://www.w3.org/2000/svg" viewBox="0 0 860 820" width="100%" height="100%" style="font-family: -apple-system, BlinkMacSystemFont, 'Segoe UI', Roboto, 'Helvetica Neue', Arial, sans-serif;">
  
  <defs>
    <linearGradient id="bgGrad" x1="0%" y1="0%" x2="100%" y2="100%">
      <stop offset="0%" stop-color="#0E0522" />
      <stop offset="50%" stop-color="#14092E" />
      <stop offset="100%" stop-color="#080316" />
    </linearGradient>
    <linearGradient id="cardGrad" x1="0%" y1="0%" x2="0%" y2="100%">
      <stop offset="0%" stop-color="#1A0D3B" />
      <stop offset="100%" stop-color="#100624" />
    </linearGradient>
    <linearGradient id="headerGrad" x1="0%" y1="0%" x2="100%" y2="0%">
      <stop offset="0%" stop-color="#7C3AED" />
      <stop offset="100%" stop-color="#4C1D95" />
    </linearGradient>
    <linearGradient id="purpleGlow" x1="0%" y1="0%" x2="100%" y2="100%">
      <stop offset="0%" stop-color="#A855F7" />
      <stop offset="100%" stop-color="#6B21A8" />
    </linearGradient>
    <linearGradient id="cyanGrad" x1="0%" y1="0%" x2="100%" y2="0%">
      <stop offset="0%" stop-color="#06B6D4" />
      <stop offset="100%" stop-color="#0284C7" />
    </linearGradient>
    <linearGradient id="greenGrad" x1="0%" y1="0%" x2="100%" y2="0%">
      <stop offset="0%" stop-color="#10B981" />
      <stop offset="100%" stop-color="#059669" />
    </linearGradient>
    <linearGradient id="redGrad" x1="0%" y1="0%" x2="100%" y2="0%">
      <stop offset="0%" stop-color="#EF4444" />
      <stop offset="100%" stop-color="#B91C1C" />
    </linearGradient>
    <filter id="shadow" x="-5%" y="-5%" width="110%" height="115%">
      <feDropShadow dx="0" dy="4" stdDeviation="4" flood-color="#000000" flood-opacity="0.65" />
    </filter>
    <filter id="subtleGlow" x="-10%" y="-10%" width="120%" height="120%">
      <feGaussianBlur stdDeviation="3" result="blur" />
      <feComposite in="SourceGraphic" in2="blur" operator="over" />
    </filter>
    <marker id="arr" viewBox="0 0 10 10" refX="7" refY="5" markerWidth="6" markerHeight="6" orient="auto-start-reverse">
      <path d="M 0 1.5 L 8 5 L 0 8.5 z" fill="#C084FC" />
    </marker>
    <marker id="arr-green" viewBox="0 0 10 10" refX="7" refY="5" markerWidth="6" markerHeight="6" orient="auto-start-reverse">
      <path d="M 0 1.5 L 8 5 L 0 8.5 z" fill="#10B981" />
    </marker>
    <marker id="arr-cyan" viewBox="0 0 10 10" refX="7" refY="5" markerWidth="6" markerHeight="6" orient="auto-start-reverse">
      <path d="M 0 1.5 L 8 5 L 0 8.5 z" fill="#06B6D4" />
    </marker>
    <marker id="arr-red" viewBox="0 0 10 10" refX="7" refY="5" markerWidth="6" markerHeight="6" orient="auto-start-reverse">
      <path d="M 0 1.5 L 8 5 L 0 8.5 z" fill="#EF4444" />
    </marker>
  </defs>

  <!-- Base Background -->
  <rect width="860" height="820" fill="url(#bgGrad)" rx="8" />
  
  <!-- Precision Technical Grid -->
  <g opacity="0.03" stroke="#A855F7" stroke-width="1">
    <line x1="0" y1="0" x2="0" y2="820" /><line x1="40" y1="0" x2="40" y2="820" /><line x1="80" y1="0" x2="80" y2="820" /><line x1="120" y1="0" x2="120" y2="820" /><line x1="160" y1="0" x2="160" y2="820" /><line x1="200" y1="0" x2="200" y2="820" /><line x1="240" y1="0" x2="240" y2="820" /><line x1="280" y1="0" x2="280" y2="820" /><line x1="320" y1="0" x2="320" y2="820" /><line x1="360" y1="0" x2="360" y2="820" /><line x1="400" y1="0" x2="400" y2="820" /><line x1="440" y1="0" x2="440" y2="820" /><line x1="480" y1="0" x2="480" y2="820" /><line x1="520" y1="0" x2="520" y2="820" /><line x1="560" y1="0" x2="560" y2="820" /><line x1="600" y1="0" x2="600" y2="820" /><line x1="640" y1="0" x2="640" y2="820" /><line x1="680" y1="0" x2="680" y2="820" /><line x1="720" y1="0" x2="720" y2="820" /><line x1="760" y1="0" x2="760" y2="820" /><line x1="800" y1="0" x2="800" y2="820" /><line x1="840" y1="0" x2="840" y2="820" />
    <line x1="0" y1="0" x2="860" y2="0" /><line x1="0" y1="40" x2="860" y2="40" /><line x1="0" y1="80" x2="860" y2="80" /><line x1="0" y1="120" x2="860" y2="120" /><line x1="0" y1="160" x2="860" y2="160" /><line x1="0" y1="200" x2="860" y2="200" /><line x1="0" y1="240" x2="860" y2="240" /><line x1="0" y1="280" x2="860" y2="280" /><line x1="0" y1="320" x2="860" y2="320" /><line x1="0" y1="360" x2="860" y2="360" /><line x1="0" y1="400" x2="860" y2="400" /><line x1="0" y1="440" x2="860" y2="440" /><line x1="0" y1="480" x2="860" y2="480" /><line x1="0" y1="520" x2="860" y2="520" /><line x1="0" y1="560" x2="860" y2="560" /><line x1="0" y1="600" x2="860" y2="600" /><line x1="0" y1="640" x2="860" y2="640" /><line x1="0" y1="680" x2="860" y2="680" /><line x1="0" y1="720" x2="860" y2="720" /><line x1="0" y1="760" x2="860" y2="760" /><line x1="0" y1="800" x2="860" y2="800" />
  </g>
  <rect width="860" height="820" fill="none" stroke="#6D28D9" stroke-width="1.5" rx="8" />
  
  <!-- Diagram Content -->
  
    <!-- Part 1: 33 District Command Center Edge Rack Specs -->
    <g transform="translate(30, 20)" filter="url(#shadow)">
      <rect width="800" height="345" rx="8" fill="url(#cardGrad)" stroke="#06B6D4" stroke-width="1.8" />
      <rect x="0" y="0" width="800" height="34" rx="8" fill="#101838" />
      <text x="20" y="23" fill="#06B6D4" font-size="13" font-weight="800">1. DISTRICT EDGE COMPUTE TOPOLOGY (33 DISTRICT NETRAM CCC SITES)</text>
      
      <!-- Rack Graphic (Left) -->
      <g transform="translate(30, 50)">
        <rect width="250" height="275" rx="6" fill="#0A0416" stroke="#6D28D9" stroke-width="1.5" />
        <rect x="10" y="10" width="230" height="25" rx="4" fill="#180C33" />
        <text x="125" y="27" fill="#06B6D4" font-size="10" font-weight="700" text-anchor="middle">42U STANDARD SERVER RACK</text>
        
        <!-- Servers in Rack -->
        <g transform="translate(15, 45)">
          <rect width="220" height="22" rx="3" fill="#1E0D45" stroke="#9333EA" stroke-width="1" />
          <circle cx="12" cy="11" r="3" fill="#10B981" />
          <text x="25" y="15" fill="#FFFFFF" font-size="8.5">Dell PowerEdge R760xa #1 (8x L40S)</text>
        </g>
        <g transform="translate(15, 72)">
          <rect width="220" height="22" rx="3" fill="#1E0D45" stroke="#9333EA" stroke-width="1" />
          <circle cx="12" cy="11" r="3" fill="#10B981" />
          <text x="25" y="15" fill="#FFFFFF" font-size="8.5">Dell PowerEdge R760xa #2 (8x L40S)</text>
        </g>
        <g transform="translate(15, 99)">
          <rect width="220" height="22" rx="3" fill="#1E0D45" stroke="#9333EA" stroke-width="1" />
          <circle cx="12" cy="11" r="3" fill="#10B981" />
          <text x="25" y="15" fill="#FFFFFF" font-size="8.5">Dell PowerEdge R760xa #3 (8x L40S)</text>
        </g>
        <g transform="translate(15, 126)">
          <rect width="220" height="22" rx="3" fill="#1E0D45" stroke="#9333EA" stroke-width="1" />
          <circle cx="12" cy="11" r="3" fill="#10B981" />
          <text x="25" y="15" fill="#FFFFFF" font-size="8.5">Dell PowerEdge R760xa #4 (8x L40S)</text>
        </g>
        <g transform="translate(15, 153)">
          <rect width="220" height="22" rx="3" fill="#1E0D45" stroke="#9333EA" stroke-width="1" />
          <circle cx="12" cy="11" r="3" fill="#10B981" />
          <text x="25" y="15" fill="#FFFFFF" font-size="8.5">Dell PowerEdge R760xa #5 (8x L40S)</text>
        </g>
        <g transform="translate(15, 180)">
          <rect width="220" height="22" rx="3" fill="#1E0D45" stroke="#9333EA" stroke-width="1" />
          <circle cx="12" cy="11" r="3" fill="#10B981" />
          <text x="25" y="15" fill="#FFFFFF" font-size="8.5">Dell PowerEdge R760xa #6 (8x L40S)</text>
        </g>
        <g transform="translate(15, 207)">
          <rect width="220" height="22" rx="3" fill="#140828" stroke="#F59E0B" stroke-width="1" />
          <circle cx="12" cy="11" r="3" fill="#F59E0B" />
          <text x="25" y="15" fill="#FFFFFF" font-size="8.5">Redundant 25GbE ToR Switches</text>
        </g>
        <g transform="translate(15, 234)">
          <rect width="220" height="28" rx="3" fill="#100520" stroke="#06B6D4" stroke-width="1" />
          <text x="110" y="18" fill="#06B6D4" font-size="9" font-weight="700" text-anchor="middle">100TB NVMe Gen4 Storage Pool</text>
        </g>
      </g>
      
      <!-- Specifications Detail (Right) -->
      <g transform="translate(300, 50)">
        <rect width="475" height="275" rx="6" fill="#0A0416" stroke="#6D28D9" stroke-width="1" />
        <text x="16" y="24" fill="#FFFFFF" font-size="11.5" font-weight="800">HARDWARE ENGINEERING SPECIFICATION PER DISTRICT</text>
        
        <text x="16" y="46" fill="#06B6D4" font-size="10" font-weight="700">• Server Model:</text>
        <text x="120" y="46" fill="#FFFFFF" font-size="10">8x 2U Dell PowerEdge R760xa AI Servers</text>
        
        <text x="16" y="66" fill="#06B6D4" font-size="10" font-weight="700">• Accelerators:</text>
        <text x="120" y="66" fill="#FFFFFF" font-size="10">50x NVIDIA L40S 48GB Ada Lovelace GPUs</text>
        
        <text x="16" y="86" fill="#06B6D4" font-size="10" font-weight="700">• Processors:</text>
        <text x="120" y="86" fill="#FFFFFF" font-size="10">Dual Intel Xeon Platinum 8480+ (112 Cores)</text>
        
        <text x="16" y="106" fill="#06B6D4" font-size="10" font-weight="700">• System RAM:</text>
        <text x="120" y="106" fill="#FFFFFF" font-size="10">512 GB ECC DDR5-4800 MHz per server</text>
        
        <text x="16" y="126" fill="#06B6D4" font-size="10" font-weight="700">• Networking:</text>
        <text x="120" y="126" fill="#FFFFFF" font-size="10">Dual 25GbE Mellanox ConnectX-6 NICs</text>
        
        <rect x="14" y="142" width="447" height="118" rx="4" fill="#130826" stroke="#2B1050" stroke-width="1" />
        <text x="22" y="162" fill="#10B981" font-size="10" font-weight="700">DISTRICT COMPUTATIONAL CAPACITY:</text>
        <text x="22" y="180" fill="#C4B5FD" font-size="9">• 50 GPUs x 48 streams = 2,400 concurrent 1080p RTSP feeds</text>
        <text x="22" y="196" fill="#C4B5FD" font-size="9">• Local buffer retention: 7 days full event metadata + crop snapshots</text>
        <text x="22" y="212" fill="#C4B5FD" font-size="9">• Air-gapped police WAN isolation; zero dependencies on internet</text>
        <text x="22" y="230" fill="#06B6D4" font-size="9" font-weight="700">Power &amp; Cooling: 18.5 kW per rack (Redundant 2N UPS)</text>
      </g>
    </g>
    
    <path d="M 430 365 L 430 395" stroke="#9333EA" stroke-width="2.5" marker-end="url(#arr)" />
    
    <!-- Part 2: Central State Command High Availability Topology -->
    <g transform="translate(30, 395)" filter="url(#shadow)">
      <rect width="800" height="365" rx="8" fill="url(#cardGrad)" stroke="#9333EA" stroke-width="2" />
      <rect x="0" y="0" width="800" height="34" rx="8" fill="#1C0E42" />
      <text x="20" y="23" fill="#FFFFFF" font-size="13" font-weight="800">2. CENTRAL STATE CCC HIGH AVAILABILITY CLUSTER (GANDHINAGAR HQ)</text>
      
      <!-- 3 Central Nodes -->
      <g transform="translate(20, 50)">
        <rect width="235" height="175" rx="6" fill="#080316" stroke="#06B6D4" stroke-width="1.5" />
        <text x="14" y="24" fill="#06B6D4" font-size="11" font-weight="800">POSTGRESQL 16 HA</text>
        <text x="14" y="44" fill="#FFFFFF" font-size="9.5">• 3-Node Patroni HA Cluster</text>
        <text x="14" y="60" fill="#C4B5FD" font-size="9">• etcd consensus engine</text>
        <text x="14" y="76" fill="#C4B5FD" font-size="9">• Synchronous replication</text>
        <text x="14" y="92" fill="#C4B5FD" font-size="9">• Auto-failover &lt; 3.0 seconds</text>
        <text x="14" y="108" fill="#C4B5FD" font-size="9">• PgBouncer connection pool</text>
        <text x="14" y="130" fill="#10B981" font-size="9.5" font-weight="700">PostGIS Spatial indexing</text>
        <text x="14" y="148" fill="#06B6D4" font-size="8.5">Temporal partitioning active</text>
      </g>
      
      <g transform="translate(280, 50)">
        <rect width="235" height="175" rx="6" fill="#080316" stroke="#C084FC" stroke-width="1.5" />
        <text x="14" y="24" fill="#C084FC" font-size="11" font-weight="800">APACHE KAFKA GRID</text>
        <text x="14" y="44" fill="#FFFFFF" font-size="9.5">• 5-Broker Distributed Cluster</text>
        <text x="14" y="60" fill="#C4B5FD" font-size="9">• KRaft consensus (ZooKeeper-less)</text>
        <text x="14" y="76" fill="#C4B5FD" font-size="9">• Replication factor = 3</text>
        <text x="14" y="92" fill="#C4B5FD" font-size="9">• Min in-sync replicas = 2</text>
        <text x="14" y="108" fill="#C4B5FD" font-size="9">• Zero event drop guarantee</text>
        <text x="14" y="130" fill="#10B981" font-size="9.5" font-weight="700">154 Mbps sustained stream</text>
        <text x="14" y="148" fill="#06B6D4" font-size="8.5">Event retention: 30 days</text>
      </g>
      
      <g transform="translate(540, 50)">
        <rect width="240" height="175" rx="6" fill="#080316" stroke="#10B981" stroke-width="1.5" />
        <text x="14" y="24" fill="#10B981" font-size="11" font-weight="800">REDIS SENTINEL CACHE</text>
        <text x="14" y="44" fill="#FFFFFF" font-size="9.5">• 3-Node Sentinel Quorum</text>
        <text x="14" y="60" fill="#C4B5FD" font-size="9">• Sub-millisecond alert bus</text>
        <text x="14" y="76" fill="#C4B5FD" font-size="9">• JWT token revocation list</text>
        <text x="14" y="92" fill="#C4B5FD" font-size="9">• 60s cooldown sliding log</text>
        <text x="14" y="108" fill="#C4B5FD" font-size="9">• Pub/Sub to WebSockets</text>
        <text x="14" y="130" fill="#10B981" font-size="9.5" font-weight="700">Zero data loss replication</text>
        <text x="14" y="148" fill="#06B6D4" font-size="8.5">AOF persistence enabled</text>
      </g>
      
      <!-- Container & Orchestration Runtime -->
      <g transform="translate(20, 240)">
        <rect width="760" height="105" rx="6" fill="#080316" stroke="#6D28D9" stroke-width="1" />
        <text x="16" y="22" fill="#FFFFFF" font-size="11" font-weight="700">CONTAINERIZATION &amp; ORCHESTRATION RUNTIME STACK</text>
        
        <text x="16" y="42" fill="#C4B5FD" font-size="9.5">• Operating System: Ubuntu 22.04 LTS (Kernel 5.15+ with real-time PREEMPT_RT patch)</text>
        <text x="16" y="58" fill="#C4B5FD" font-size="9.5">• GPU Container Toolkit: NVIDIA Container Toolkit v1.14 + CUDA 12.2 + TensorRT 10.0</text>
        <text x="16" y="74" fill="#C4B5FD" font-size="9.5">• Kubernetes Orchestration: RKE2 Government-Certified Air-Gapped K8s with NVIDIA GPU Operator</text>
        <text x="16" y="92" fill="#10B981" font-size="9.5" font-weight="700">100% On-Premise Air-Gapped Compliance // Zero Cloud External Dependency</text>
      </g>
    </g>
</svg>